<svg width="99" height="98" viewBox="0 0 99 98" fill="none" xmlns="http://www.w3.org/2000/svg">
<path d="M42.2529 71.295L77.0215 36.6275L71.3701 31.115L42.2529 60.1475L27.5101 45.4475L21.9815 50.96L42.2529 71.295ZM49.5015 98C42.7853 98 36.4377 96.7138 30.4586 94.1413C24.4796 91.5687 19.2582 88.0571 14.7944 83.6063C10.3305 79.1554 6.80864 73.9492 4.22864 67.9875C1.64864 62.0258 0.358643 55.6967 0.358643 49C0.358643 42.2217 1.64864 35.8517 4.22864 29.89C6.80864 23.9283 10.3305 18.7425 14.7944 14.3325C19.2582 9.9225 24.4796 6.43125 30.4586 3.85875C36.4377 1.28625 42.7853 0 49.5015 0C56.2996 0 62.6882 1.28625 68.6672 3.85875C74.6463 6.43125 79.8472 9.9225 84.2701 14.3325C88.6929 18.7425 92.1944 23.9283 94.7744 29.89C97.3544 35.8517 98.6444 42.2217 98.6444 49C98.6444 55.6967 97.3544 62.0258 94.7744 67.9875C92.1944 73.9492 88.6929 79.1554 84.2701 83.6063C79.8472 88.0571 74.6463 91.5687 68.6672 94.1413C62.6882 96.7138 56.2996 98 49.5015 98ZM49.5015 90.65C61.132 90.65 71.0015 86.5871 79.1101 78.4613C87.2186 70.3354 91.2729 60.515 91.2729 49C91.2729 37.4033 87.2186 27.5625 79.1101 19.4775C71.0015 11.3925 61.132 7.35 49.5015 7.35C37.9529 7.35 28.1039 11.3925 19.9544 19.4775C11.8048 27.5625 7.73007 37.4033 7.73007 49C7.73007 60.515 11.8048 70.3354 19.9544 78.4613C28.1039 86.5871 37.9529 90.65 49.5015 90.65Z" fill="#E90248"/>
</svg>
